<svg width="155" height="48" viewBox="0 0 155 48" fill="none" xmlns="http://www.w3.org/2000/svg">
<g filter="url(#filter0_d_1_44)">
<path d="M4.15391 39V4H9.55391V39H4.15391ZM6.55391 24.1V18.9H24.6039V24.1H6.55391ZM6.55391 9.2V4H26.8539V9.2H6.55391ZM33.782 39V12.75H38.932V39H33.782ZM36.282 6.95C35.182 6.95 34.332 6.66666 33.732 6.1C33.132 5.53333 32.832 4.73333 32.832 3.7C32.832 2.73333 33.132 1.95 33.732 1.35C34.3654 0.749999 35.2154 0.449999 36.282 0.449999C37.382 0.449999 38.232 0.733332 38.832 1.3C39.432 1.86666 39.732 2.66666 39.732 3.7C39.732 4.66666 39.4154 5.45 38.782 6.05C38.182 6.65 37.3487 6.95 36.282 6.95ZM50.098 39V6.05H55.248V39H50.098ZM44.648 17.75V12.75H61.348V17.75H44.648ZM67.3375 39V4H72.7375V39H67.3375ZM69.7375 24.1V18.9H87.7875V24.1H69.7375ZM69.7375 9.2V4H90.0375V9.2H69.7375ZM104.583 39.5C102.717 39.5 101.083 39.0667 99.6832 38.2C98.3165 37.3333 97.2499 36.1167 96.4832 34.55C95.7499 32.9833 95.3832 31.1167 95.3832 28.95V12.75H100.533V27.55C100.533 29.0833 100.767 30.4167 101.233 31.55C101.733 32.65 102.433 33.5 103.333 34.1C104.267 34.7 105.383 35 106.683 35C107.65 35 108.533 34.85 109.333 34.55C110.133 34.2167 110.817 33.7667 111.383 33.2C111.983 32.6333 112.45 31.95 112.783 31.15C113.117 30.35 113.283 29.4833 113.283 28.55V12.75H118.433V39H113.283V33.5L114.183 32.9C113.783 34.1333 113.1 35.25 112.133 36.25C111.2 37.25 110.083 38.05 108.783 38.65C107.483 39.2167 106.083 39.5 104.583 39.5ZM136.607 39.5C134.207 39.5 132.057 38.9167 130.157 37.75C128.29 36.55 126.807 34.9333 125.707 32.9C124.607 30.8333 124.057 28.4833 124.057 25.85C124.057 23.2167 124.59 20.8833 125.657 18.85C126.757 16.7833 128.24 15.1667 130.107 14C131.973 12.8 134.09 12.2 136.457 12.2C137.757 12.2 139.007 12.4167 140.207 12.85C141.44 13.25 142.54 13.8167 143.507 14.55C144.473 15.25 145.223 16.0333 145.757 16.9C146.323 17.7333 146.607 18.5833 146.607 19.45L145.107 19.55V2H150.257V39H145.107V32.75H146.107C146.107 33.55 145.84 34.35 145.307 35.15C144.773 35.9167 144.057 36.6333 143.157 37.3C142.29 37.9667 141.273 38.5 140.107 38.9C138.973 39.3 137.807 39.5 136.607 39.5ZM137.307 35.05C138.873 35.05 140.257 34.65 141.457 33.85C142.657 33.05 143.59 31.9667 144.257 30.6C144.957 29.2 145.307 27.6167 145.307 25.85C145.307 24.0833 144.957 22.5167 144.257 21.15C143.59 19.75 142.657 18.65 141.457 17.85C140.257 17.05 138.873 16.65 137.307 16.65C135.74 16.65 134.357 17.05 133.157 17.85C131.957 18.65 131.007 19.75 130.307 21.15C129.64 22.5167 129.307 24.0833 129.307 25.85C129.307 27.6167 129.64 29.2 130.307 30.6C131.007 31.9667 131.957 33.05 133.157 33.85C134.357 34.65 135.74 35.05 137.307 35.05Z" fill="#A8DCC3"/>
<path d="M4.15391 39H3.65391V39.5H4.15391V39ZM4.15391 4V3.5H3.65391V4H4.15391ZM9.55391 4H10.0539V3.5H9.55391V4ZM9.55391 39V39.5H10.0539V39H9.55391ZM6.55391 24.1H6.05391V24.6H6.55391V24.1ZM6.55391 18.9V18.4H6.05391V18.9H6.55391ZM24.6039 18.9H25.1039V18.4H24.6039V18.9ZM24.6039 24.1V24.6H25.1039V24.1H24.6039ZM6.55391 9.2H6.05391V9.7H6.55391V9.2ZM6.55391 4V3.5H6.05391V4H6.55391ZM26.8539 4H27.3539V3.5H26.8539V4ZM26.8539 9.2V9.7H27.3539V9.2H26.8539ZM4.65391 39V4H3.65391V39H4.65391ZM4.15391 4.5H9.55391V3.5H4.15391V4.5ZM9.05391 4V39H10.0539V4H9.05391ZM9.55391 38.5H4.15391V39.5H9.55391V38.5ZM7.05391 24.1V18.9H6.05391V24.1H7.05391ZM6.55391 19.4H24.6039V18.4H6.55391V19.4ZM24.1039 18.9V24.1H25.1039V18.9H24.1039ZM24.6039 23.6H6.55391V24.6H24.6039V23.6ZM7.05391 9.2V4H6.05391V9.2H7.05391ZM6.55391 4.5H26.8539V3.5H6.55391V4.5ZM26.3539 4V9.2H27.3539V4H26.3539ZM26.8539 8.7H6.55391V9.7H26.8539V8.7ZM33.782 39H33.282V39.5H33.782V39ZM33.782 12.75V12.25H33.282V12.75H33.782ZM38.932 12.75H39.432V12.25H38.932V12.75ZM38.932 39V39.5H39.432V39H38.932ZM33.732 6.1L34.0753 5.73649L33.732 6.1ZM33.732 1.35L33.388 0.98689L33.3785 0.996446L33.732 1.35ZM38.832 1.3L38.4887 1.66351L38.832 1.3ZM38.782 6.05L38.438 5.68689L38.4285 5.69645L38.782 6.05ZM34.282 39V12.75H33.282V39H34.282ZM33.782 13.25H38.932V12.25H33.782V13.25ZM38.432 12.75V39H39.432V12.75H38.432ZM38.932 38.5H33.782V39.5H38.932V38.5ZM36.282 6.45C35.2662 6.45 34.5551 6.18959 34.0753 5.73649L33.3887 6.4635C34.109 7.14374 35.0979 7.45 36.282 7.45V6.45ZM34.0753 5.73649C33.5994 5.28696 33.332 4.63271 33.332 3.7H32.332C32.332 4.83395 32.6647 5.77971 33.3887 6.4635L34.0753 5.73649ZM33.332 3.7C33.332 2.84586 33.5927 2.19648 34.0856 1.70355L33.3785 0.996446C32.6714 1.70352 32.332 2.6208 32.332 3.7H33.332ZM34.0759 1.71298C34.5966 1.21966 35.3132 0.949999 36.282 0.949999V-0.0500011C35.1175 -0.0500011 34.1341 0.280337 33.3882 0.987022L34.0759 1.71298ZM36.282 0.949999C37.2979 0.949999 38.009 1.21041 38.4887 1.66351L39.1753 0.936493C38.4551 0.256257 37.4662 -0.0500011 36.282 -0.0500011V0.949999ZM38.4887 1.66351C38.9647 2.11304 39.232 2.76729 39.232 3.7H40.232C40.232 2.56604 39.8994 1.62029 39.1753 0.936493L38.4887 1.66351ZM39.232 3.7C39.232 4.54577 38.9605 5.19216 38.4382 5.68702L39.1259 6.41297C39.8702 5.70783 40.232 4.78756 40.232 3.7H39.232ZM38.4285 5.69645C37.9449 6.18 37.252 6.45 36.282 6.45V7.45C37.4454 7.45 38.4191 7.12 39.1356 6.40355L38.4285 5.69645ZM50.098 39H49.598V39.5H50.098V39ZM50.098 6.05V5.55H49.598V6.05H50.098ZM55.248 6.05H55.748V5.55H55.248V6.05ZM55.248 39V39.5H55.748V39H55.248ZM44.648 17.75H44.148V18.25H44.648V17.75ZM44.648 12.75V12.25H44.148V12.75H44.648ZM61.348 12.75H61.848V12.25H61.348V12.75ZM61.348 17.75V18.25H61.848V17.75H61.348ZM50.598 39V6.05H49.598V39H50.598ZM50.098 6.55H55.248V5.55H50.098V6.55ZM54.748 6.05V39H55.748V6.05H54.748ZM55.248 38.5H50.098V39.5H55.248V38.5ZM45.148 17.75V12.75H44.148V17.75H45.148ZM44.648 13.25H61.348V12.25H44.648V13.25ZM60.848 12.75V17.75H61.848V12.75H60.848ZM61.348 17.25H44.648V18.25H61.348V17.25ZM67.3375 39H66.8375V39.5H67.3375V39ZM67.3375 4V3.5H66.8375V4H67.3375ZM72.7375 4H73.2375V3.5H72.7375V4ZM72.7375 39V39.5H73.2375V39H72.7375ZM69.7375 24.1H69.2375V24.6H69.7375V24.1ZM69.7375 18.9V18.4H69.2375V18.9H69.7375ZM87.7875 18.9H88.2875V18.4H87.7875V18.9ZM87.7875 24.1V24.6H88.2875V24.1H87.7875ZM69.7375 9.2H69.2375V9.7H69.7375V9.2ZM69.7375 4V3.5H69.2375V4H69.7375ZM90.0375 4H90.5375V3.5H90.0375V4ZM90.0375 9.2V9.7H90.5375V9.2H90.0375ZM67.8375 39V4H66.8375V39H67.8375ZM67.3375 4.5H72.7375V3.5H67.3375V4.5ZM72.2375 4V39H73.2375V4H72.2375ZM72.7375 38.5H67.3375V39.5H72.7375V38.5ZM70.2375 24.1V18.9H69.2375V24.1H70.2375ZM69.7375 19.4H87.7875V18.4H69.7375V19.4ZM87.2875 18.9V24.1H88.2875V18.9H87.2875ZM87.7875 23.6H69.7375V24.6H87.7875V23.6ZM70.2375 9.2V4H69.2375V9.2H70.2375ZM69.7375 4.5H90.0375V3.5H69.7375V4.5ZM89.5375 4V9.2H90.5375V4H89.5375ZM90.0375 8.7H69.7375V9.7H90.0375V8.7ZM99.6832 38.2L99.4154 38.6223L99.42 38.6251L99.6832 38.2ZM96.4832 34.55L96.0303 34.762L96.0341 34.7698L96.4832 34.55ZM95.3832 12.75V12.25H94.8832V12.75H95.3832ZM100.533 12.75H101.033V12.25H100.533V12.75ZM101.233 31.55L100.771 31.7404L100.774 31.7487L100.778 31.7569L101.233 31.55ZM103.333 34.1L103.056 34.5161L103.063 34.5206L103.333 34.1ZM109.333 34.55L109.509 35.0182L109.517 35.015L109.526 35.0115L109.333 34.55ZM111.383 33.2L111.04 32.8365L111.035 32.8414L111.03 32.8464L111.383 33.2ZM113.283 12.75V12.25H112.783V12.75H113.283ZM118.433 12.75H118.933V12.25H118.433V12.75ZM118.433 39V39.5H118.933V39H118.433ZM113.283 39H112.783V39.5H113.283V39ZM113.283 33.5L113.006 33.084L112.783 33.2324V33.5H113.283ZM114.183 32.9L114.659 33.0543L115.103 31.6862L113.906 32.484L114.183 32.9ZM112.133 36.25L111.774 35.9024L111.768 35.9088L112.133 36.25ZM108.783 38.65L108.983 39.1085L108.993 39.104L108.783 38.65ZM104.583 39C102.797 39 101.257 38.5863 99.9464 37.7749L99.42 38.6251C100.909 39.547 102.636 40 104.583 40V39ZM99.951 37.7777C98.6684 36.9644 97.6617 35.8207 96.9323 34.3302L96.0341 34.7698C96.8381 36.4127 97.9647 37.7023 99.4154 38.6223L99.951 37.7777ZM96.9361 34.338C96.2406 32.8523 95.8832 31.0614 95.8832 28.95H94.8832C94.8832 31.1719 95.2592 33.1144 96.0304 34.762L96.9361 34.338ZM95.8832 28.95V12.75H94.8832V28.95H95.8832ZM95.3832 13.25H100.533V12.25H95.3832V13.25ZM100.033 12.75V27.55H101.033V12.75H100.033ZM100.033 27.55C100.033 29.1328 100.274 30.5336 100.771 31.7404L101.696 31.3596C101.259 30.2998 101.033 29.0338 101.033 27.55H100.033ZM100.778 31.7569C101.312 32.9316 102.069 33.8584 103.056 34.516L103.611 33.684C102.797 33.1416 102.154 32.3684 101.688 31.3431L100.778 31.7569ZM103.063 34.5206C104.09 35.1808 105.304 35.5 106.683 35.5V34.5C105.462 34.5 104.443 34.2192 103.604 33.6794L103.063 34.5206ZM106.683 35.5C107.702 35.5 108.646 35.3418 109.509 35.0182L109.158 34.0818C108.421 34.3582 107.598 34.5 106.683 34.5V35.5ZM109.526 35.0115C110.381 34.6551 111.12 34.17 111.737 33.5536L111.03 32.8464C110.513 33.3633 109.886 33.7782 109.141 34.0885L109.526 35.0115ZM111.727 33.5635C112.38 32.9463 112.886 32.2037 113.245 31.3423L112.322 30.9577C112.014 31.6963 111.586 32.3204 111.04 32.8365L111.727 33.5635ZM113.245 31.3423C113.605 30.4768 113.783 29.5442 113.783 28.55H112.783C112.783 29.4225 112.628 30.2232 112.322 30.9577L113.245 31.3423ZM113.783 28.55V12.75H112.783V28.55H113.783ZM113.283 13.25H118.433V12.25H113.283V13.25ZM117.933 12.75V39H118.933V12.75H117.933ZM118.433 38.5H113.283V39.5H118.433V38.5ZM113.783 39V33.5H112.783V39H113.783ZM113.561 33.916L114.461 33.316L113.906 32.484L113.006 33.084L113.561 33.916ZM113.708 32.7457C113.333 33.9015 112.691 34.9532 111.774 35.9025L112.493 36.5975C113.508 35.5468 114.234 34.3652 114.659 33.0543L113.708 32.7457ZM111.768 35.9088C110.881 36.8593 109.818 37.6219 108.574 38.196L108.993 39.104C110.349 38.4781 111.519 37.6407 112.499 36.5912L111.768 35.9088ZM108.583 38.1917C107.35 38.7293 106.018 39 104.583 39V40C106.148 40 107.616 39.7041 108.983 39.1083L108.583 38.1917ZM130.157 37.75L129.886 38.1707L129.895 38.1761L130.157 37.75ZM125.707 32.9L125.265 33.1349L125.267 33.1379L125.707 32.9ZM125.657 18.85L125.215 18.6151L125.214 18.6177L125.657 18.85ZM130.107 14L130.372 14.424L130.377 14.4206L130.107 14ZM140.207 12.85L140.037 13.3203L140.045 13.3231L140.052 13.3256L140.207 12.85ZM143.507 14.55L143.204 14.9484L143.213 14.955L143.507 14.55ZM145.757 16.9L145.331 17.162L145.337 17.1717L145.343 17.1812L145.757 16.9ZM146.607 19.45L146.64 19.9489L147.107 19.9178V19.45H146.607ZM145.107 19.55H144.607V20.0844L145.14 20.0489L145.107 19.55ZM145.107 2V1.5H144.607V2H145.107ZM150.257 2H150.757V1.5H150.257V2ZM150.257 39V39.5H150.757V39H150.257ZM145.107 39H144.607V39.5H145.107V39ZM145.107 32.75V32.25H144.607V32.75H145.107ZM146.107 32.75H146.607V32.25H146.107V32.75ZM145.307 35.15L145.717 35.4356L145.723 35.4273L145.307 35.15ZM143.157 37.3L142.859 36.8982L142.852 36.9037L143.157 37.3ZM140.107 38.9L139.944 38.427L139.94 38.4285L140.107 38.9ZM141.457 33.85L141.179 33.434L141.457 33.85ZM144.257 30.6L143.809 30.3764L143.807 30.3808L144.257 30.6ZM144.257 21.15L143.805 21.365L143.808 21.3715L143.812 21.3779L144.257 21.15ZM141.457 17.85L141.179 18.266L141.457 17.85ZM133.157 17.85L133.434 18.266L133.157 17.85ZM130.307 21.15L129.859 20.9264L129.857 20.9308L130.307 21.15ZM130.307 30.6L129.855 30.815L129.858 30.8215L129.862 30.8279L130.307 30.6ZM133.157 33.85L133.434 33.434L133.157 33.85ZM136.607 39C134.292 39 132.234 38.4385 130.418 37.3239L129.895 38.1761C131.88 39.3948 134.122 40 136.607 40V39ZM130.427 37.3294C128.634 36.177 127.208 34.6244 126.146 32.6621L125.267 33.1379C126.405 35.2422 127.946 36.923 129.886 38.1706L130.427 37.3294ZM126.148 32.6651C125.091 30.6794 124.557 28.4118 124.557 25.85H123.557C123.557 28.5549 124.122 30.9873 125.265 33.1349L126.148 32.6651ZM124.557 25.85C124.557 23.2856 125.076 21.0341 126.099 19.0823L125.214 18.6177C124.104 20.7326 123.557 23.1477 123.557 25.85H124.557ZM126.098 19.0849C127.16 17.0906 128.584 15.5412 130.372 14.424L129.842 13.576C127.896 14.7921 126.354 16.4761 125.215 18.6151L126.098 19.0849ZM130.377 14.4206C132.158 13.2759 134.179 12.7 136.457 12.7V11.7C134.001 11.7 131.789 12.3241 129.836 13.5794L130.377 14.4206ZM136.457 12.7C137.7 12.7 138.892 12.907 140.037 13.3203L140.376 12.3797C139.121 11.9263 137.813 11.7 136.457 11.7V12.7ZM140.052 13.3256C141.236 13.7095 142.285 14.2511 143.204 14.9483L143.809 14.1517C142.795 13.3822 141.644 12.7905 140.361 12.3744L140.052 13.3256ZM143.213 14.955C144.136 15.623 144.837 16.36 145.331 17.162L146.182 16.6379C145.609 15.7066 144.811 14.877 143.8 14.145L143.213 14.955ZM145.343 17.1812C145.863 17.9454 146.107 18.6992 146.107 19.45H147.107C147.107 18.4675 146.784 17.5212 146.17 16.6188L145.343 17.1812ZM146.573 18.9511L145.073 19.0511L145.14 20.0489L146.64 19.9489L146.573 18.9511ZM145.607 19.55V2H144.607V19.55H145.607ZM145.107 2.5H150.257V1.5H145.107V2.5ZM149.757 2V39H150.757V2H149.757ZM150.257 38.5H145.107V39.5H150.257V38.5ZM145.607 39V32.75H144.607V39H145.607ZM145.107 33.25H146.107V32.25H145.107V33.25ZM145.607 32.75C145.607 33.4328 145.38 34.138 144.891 34.8727L145.723 35.4273C146.3 34.562 146.607 33.6672 146.607 32.75H145.607ZM144.896 34.8645C144.399 35.5786 143.724 36.2577 142.859 36.8982L143.454 37.7018C144.389 37.009 145.147 36.2547 145.717 35.4355L144.896 34.8645ZM142.852 36.9037C142.033 37.5333 141.066 38.0424 139.944 38.427L140.269 39.373C141.48 38.9576 142.547 38.4001 143.462 37.6963L142.852 36.9037ZM139.94 38.4285C138.86 38.8097 137.75 39 136.607 39V40C137.863 40 139.086 39.7903 140.273 39.3715L139.94 38.4285ZM137.307 35.55C138.963 35.55 140.445 35.1255 141.734 34.266L141.179 33.434C140.069 34.1745 138.783 34.55 137.307 34.55V35.55ZM141.734 34.266C143.012 33.4141 144.003 32.2611 144.706 30.8192L143.807 30.3808C143.177 31.6723 142.301 32.6859 141.179 33.434L141.734 34.266ZM144.704 30.8236C145.443 29.3457 145.807 27.6842 145.807 25.85H144.807C144.807 27.5491 144.47 29.0543 143.809 30.3764L144.704 30.8236ZM145.807 25.85C145.807 24.0161 145.443 22.3692 144.702 20.9221L143.812 21.3779C144.47 22.6641 144.807 24.1506 144.807 25.85H145.807ZM144.708 20.935C144.006 19.4599 143.015 18.2878 141.734 17.434L141.179 18.266C142.299 19.0122 143.174 20.0401 143.805 21.365L144.708 20.935ZM141.734 17.434C140.445 16.5745 138.963 16.15 137.307 16.15V17.15C138.783 17.15 140.069 17.5255 141.179 18.266L141.734 17.434ZM137.307 16.15C135.65 16.15 134.169 16.5745 132.879 17.434L133.434 18.266C134.545 17.5255 135.83 17.15 137.307 17.15V16.15ZM132.879 17.434C131.601 18.2863 130.595 19.4554 129.859 20.9264L130.754 21.3736C131.418 20.0446 132.312 19.0137 133.434 18.266L132.879 17.434ZM129.857 20.9308C129.152 22.376 128.807 24.0196 128.807 25.85H129.807C129.807 24.147 130.128 22.6574 130.756 21.3692L129.857 20.9308ZM128.807 25.85C128.807 27.6807 129.152 29.339 129.855 30.815L130.758 30.385C130.128 29.061 129.807 27.5527 129.807 25.85H128.807ZM129.862 30.8279C130.598 32.2655 131.604 33.4156 132.879 34.266L133.434 33.434C132.31 32.6844 131.415 31.6678 130.752 30.3721L129.862 30.8279ZM132.879 34.266C134.169 35.1255 135.65 35.55 137.307 35.55V34.55C135.83 34.55 134.545 34.1745 133.434 33.434L132.879 34.266Z" fill="black"/>
</g>
<defs>
<filter id="filter0_d_1_44" x="0.1539" y="0.449997" width="154.103" height="47.05" filterUnits="userSpaceOnUse" color-interpolation-filters="sRGB">
<feFlood flood-opacity="0" result="BackgroundImageFix"/>
<feColorMatrix in="SourceAlpha" type="matrix" values="0 0 0 0 0 0 0 0 0 0 0 0 0 0 0 0 0 0 127 0" result="hardAlpha"/>
<feOffset dy="4"/>
<feGaussianBlur stdDeviation="2"/>
<feComposite in2="hardAlpha" operator="out"/>
<feColorMatrix type="matrix" values="0 0 0 0 0 0 0 0 0 0 0 0 0 0 0 0 0 0 0.25 0"/>
<feBlend mode="normal" in2="BackgroundImageFix" result="effect1_dropShadow_1_44"/>
<feBlend mode="normal" in="SourceGraphic" in2="effect1_dropShadow_1_44" result="shape"/>
</filter>
</defs>
</svg>
